<?xml version="1.0" standalone="no"?>
<svg xmlns="http://www.w3.org/2000/svg" viewBox="0 0 104 29" width="104" height="29"><path fill="#61d1b6" fill-rule="nonzero" d="M16.13 4.51L10.73 4.51L10.73 16.80L5.42 16.80L5.42 4.51L0 4.51L0 0.29L16.13 0.29L16.13 4.51ZM24.91 0Q26.88 0 28.33 0.60Q29.78 1.20 30.54 2.22Q31.30 3.24 31.30 4.49L31.30 4.49Q31.30 5.74 30.62 6.73Q29.95 7.73 28.90 8.14L28.90 8.14L28.90 8.23Q30.26 8.66 31.02 9.73Q31.78 10.80 31.78 12.31L31.78 12.31Q31.68 14.42 29.94 15.76Q28.20 17.09 24.82 17.09L24.82 17.09Q22.49 17.09 20.90 16.46Q19.32 15.84 18.55 14.76Q17.78 13.68 17.78 12.34L17.78 12.34L17.78 11.83L22.01 11.83Q22.01 13.80 24.50 13.80L24.50 13.80Q27 13.80 27 11.59L27 11.59Q27 10.75 26.53 10.31Q26.06 9.86 25.32 9.86L25.32 9.86L23.57 9.86L23.57 6.91L24.94 6.91Q25.68 6.91 26.15 6.47Q26.62 6.02 26.62 5.18L26.62 5.18Q26.62 4.39 26.05 3.84Q25.49 3.29 24.50 3.29L24.50 3.29Q23.47 3.29 22.90 3.82Q22.32 4.34 22.32 5.11L22.32 5.11L18.31 5.11L18.31 4.51Q18.31 3.26 19.09 2.23Q19.87 1.20 21.37 0.60Q22.87 0 24.91 0L24.91 0ZM34.56 16.80L34.56 0.29L39.86 0.29L39.86 12.58L48.34 12.58L48.34 16.80L34.56 16.80ZM55.87 7.34L61.75 0.29L68.33 0.29L62.40 7.08L68.45 16.80L62.18 16.80L58.75 10.75L55.87 13.10L55.87 16.80L50.57 16.80L50.57 0.29L55.87 0.29L55.87 7.34Z" transform="translate(0, 5.956)"></path><line x1="77.44800000000001" y1="2%" x2="77.44800000000001" y2="98%" stroke="#61d1b6" stroke-linecap="round"></line><g fill="#489bfa" color="#489bfa" transform="translate(86.44800000000001 0) scale(0.6041667)"><svg width="29.0" height="48.0" x="0.0" y="0.0" viewBox="0 0 29 48"><path fill="currentColor" fill-rule="evenodd" d="M24 28.8l4.8 4.8L14.4 48 0 33.6l4.8-4.8 9.6 9.6 9.6-9.6zm-9.6-14.4L24 24l-9.6 9.6L4.8 24l9.6-9.6zm0-14.4l14.4 14.4-4.8 4.8-9.6-9.6-9.6 9.6L0 14.4 14.4 0z"></path></svg></g></svg>